<?xml version="1.0" encoding="UTF-8"?>
<svg id="_Слой_2" data-name="Слой 2" xmlns="http://www.w3.org/2000/svg" viewBox="0 0 81.31 119.47">
  <g id="_Слой_1-2" data-name="Слой 1">
    <g>
      <path d="m60.42,35.63c0-5.3-2.08-10.28-5.84-14.02-3.73-3.71-8.67-5.76-13.91-5.76h-.07c-10.9.04-19.74,8.96-19.71,19.89.03,10.87,8.9,19.72,19.77,19.72h0c5.27,0,10.23-2.06,13.97-5.8,3.75-3.75,5.81-8.74,5.8-14.03Zm-3.58.09c0,4.33-1.72,8.4-4.83,11.47-3.09,3.06-7.17,4.71-11.45,4.68-8.91-.08-16.14-7.4-16.11-16.33.03-8.88,7.28-16.09,16.16-16.09h.05c8.93.03,16.18,7.32,16.17,16.26Z"/>
      <path d="m79.33,96.12c-1.22-1.56-2.79-3.04-4.55-4.27-4.9-3.42-10.52-4.97-15.37-6.05-1.34-.3-2.66-.54-4.06-.8-.42-.08-.84-.16-1.27-.24.06-.11.12-.22.19-.32.53-.87,1.06-1.73,1.59-2.59.99-1.6,1.97-3.21,2.94-4.82,5.43-9.06,10.64-18.01,14.62-27.79,2.1-5.15,4.1-11.33,2.98-18.06-2.46-14.84-10.9-24.83-25.08-29.7-3.41-.96-7.07-1.49-10.89-1.49-2.31,0-4.56.21-6.74.57C21.57,3.03,12.77,10.13,7.52,21.74c-2.92,6.45-3.69,12.95-2.3,19.3,1.1,4.99,3.13,9.66,5.17,13.96,4.62,9.74,9.95,18.59,16.46,29.16l.39.65c-.11.02-.21.04-.32.06-5.43.85-9.79,1.97-13.74,3.54-3.61,1.43-7.71,3.39-10.75,7.04-3.17,3.8-3.24,8.24-.2,12.17,1.5,1.94,3.47,3.55,6.22,5.06,5.63,3.11,12.01,4.99,20.7,6.08,3.78.48,7.61.72,11.46.72s7.69-.24,11.54-.71c7.12-.88,12.84-2.37,17.98-4.71,2.91-1.32,6.58-3.27,9.15-6.73,2.69-3.61,2.71-7.79.05-11.2Zm-58.03-28.23c-4.28-7.23-8-14.73-11.05-22.29C3.83,29.68,13.63,12.54,26.81,6.52c4.49-2.05,9.25-3.08,13.97-3.08,4.96,0,9.87,1.13,14.39,3.38,8.82,4.4,15.13,12.6,17.31,22.49,1.2,5.47.59,11.16-1.86,17.37-3.74,9.46-8.69,18.13-12.59,24.62-4.01,6.69-8.18,13.44-12.21,19.96-1.72,2.78-3.43,5.56-5.15,8.34l-1.09-1.76c-.97-1.57-1.93-3.12-2.87-4.66-1.5-2.46-3.01-4.91-4.52-7.37-3.6-5.86-7.32-11.91-10.89-17.93Zm26.78,27.28c5.25.38,10.86,1.03,16.24,3.2,1.23.49,2.46,1.2,3.57,2.05.55.42.83.83.84,1.21,0,.41-.29.86-.88,1.35-1.9,1.57-4.25,2.33-6.5,2.97-6.99,2.01-14.08,2.39-20.71,2.5-8.35-.15-15.31-.71-22.12-2.98-1.57-.52-3.15-1.27-4.57-2.17-.91-.57-1.4-1.19-1.39-1.73.02-.66.76-1.22,1.39-1.56,2.7-1.5,4.95-2.43,7.08-2.93,2.66-.62,5.42-1.01,8.1-1.39,1.28-.18,2.56-.36,3.83-.57.09-.02.18-.02.26-.02.38,0,.61.18.88.65.99,1.69,2.01,3.37,3.03,5.04.55.9,1.09,1.79,1.63,2.69,1.2,2,2.58,1.99,3.8-.04l.45-.76c1.39-2.32,2.83-4.72,4.3-7.04.17-.26.6-.51.76-.5Zm27.85,10.66c-2.62,2.99-6.08,4.57-9.12,5.71-8.69,3.27-18.45,4.66-29.85,4.24-7.67-.28-14.42-1.45-20.65-3.56-3.83-1.3-6.54-2.66-8.81-4.42-.91-.71-1.7-1.46-2.34-2.23-2.1-2.53-2.1-5.22-.01-7.8,2.13-2.63,5.03-4.14,7.85-5.38,4.41-1.94,9.28-3.24,15.81-4.19.1-.01.18-.02.25-.02.27,0,.4.1.56.38.5.89,1.04,1.74,1.6,2.63.09.15.19.29.28.44-.5.07-1,.13-1.49.2-1.66.22-3.24.42-4.83.68-3.34.54-7.24,1.33-10.78,3.07-1.51.74-2.79,1.61-3.83,2.59-1.05,1-1.63,2.24-1.62,3.51,0,1.23.58,2.42,1.6,3.36,1.3,1.19,2.92,2.23,4.67,2.99,5.31,2.32,10.99,3.03,15.9,3.52,7.1.71,14.33.62,21.5-.25,4.61-.56,9.52-1.38,14.12-3.54,1.47-.69,2.81-1.57,3.87-2.55,1.1-1.02,1.7-2.23,1.72-3.51.02-1.32-.57-2.61-1.71-3.73-1.85-1.81-4.33-3.09-7.36-3.8-2.97-.69-6.02-1.24-8.97-1.76-1.18-.21-2.35-.42-3.52-.64-.31-.06-.63-.1-.98-.14l.28-.45c.62-1.01,1.21-1.96,1.83-2.87.06-.06.34-.15.5-.13,5.9.83,12.77,2.15,18.95,5.74,1.74,1.01,3.35,2.29,4.65,3.7,2.35,2.55,2.33,5.45-.05,8.18Z"/>
    </g>
  </g>
</svg>