<?xml version="1.0" encoding="UTF-8"?>
<svg id="_Слой_2" data-name="Слой 2" xmlns="http://www.w3.org/2000/svg" viewBox="0 0 353.89 285.2">
  <g id="_Слой_1-2" data-name="Слой 1">
    <g>
      <path d="m0,71.59c4.11-3.99,8.26-7.94,12.31-11.99,9.62-9.6,19.19-19.25,28.8-28.87,3.01-3.01,4-3.01,7.08.07,12.37,12.39,24.75,24.77,37.05,37.24,1.59,1.62,3.19,2.24,5.42,2.21,8.62-.11,17.25-.05,25.63-.05-2.63-26.48,6.74-47.28,29.23-60.86,21.75-13.14,44.24-12.27,65.53,1.61,19.96,13,29.95,36.35,26.13,59.04.99.07,1.95.21,2.92.21,7.83.02,15.67.12,23.49-.08,1.61-.04,3.58-.85,4.71-1.97,12.34-12.25,24.55-24.64,36.8-36.99,3.59-3.62,4.43-3.62,8.12.09,12.61,12.64,25.19,25.31,37.86,37.89,1.94,1.93,2.8,3.87,2.8,6.64-.07,67.97-.04,135.94-.13,203.91,0,1.72-1.14,3.44-1.75,5.16-1.65-.74-3.68-1.08-4.89-2.27-11.72-11.57-23.32-23.27-34.92-34.97-.89-.89-1.55-2.01-2.32-3.02l-1.59-.59c-.77,1.29-1.31,2.79-2.33,3.83-11.49,11.64-23.09,23.18-34.57,34.82-1.74,1.77-3.53,2.56-6.05,2.56-58.97-.06-117.95-.06-176.92,0-2.55,0-4.3-.88-6.02-2.63-11.47-11.66-23.03-23.23-34.52-34.88-.95-.97-1.54-2.3-2.55-3.84-6.47,6.55-12.02,12.21-17.61,17.83-7.07,7.1-14.24,14.11-21.22,21.3-2.13,2.19-4.06,2.72-6.51.81C0,213.06,0,142.33,0,71.59Zm89.21,4.72v4.17c0,18.31.28,36.63-.12,54.93-.19,8.95.71,17.37,5.51,25.09.42.67.91,1.49.87,2.22-.06,1.15-.19,2.7-.93,3.29-.74.59-2.27.36-3.42.21-.6-.08-1.12-.76-1.69-1.18v113.83h175.18v-3.92c0-21.42-.53-42.86.22-64.25.39-11.24-1.56-21.05-8.98-29.57-.45-.51-.73-1.17-1.13-1.74-1.2-1.72-1.58-3.44.38-4.81,2.03-1.41,3.45-.26,4.58,1.44,1.42,2.14,2.81,4.29,4.75,7.25v-106.98h-21.14q-7.75,0-10.5,7.05c-.21.54-.42,1.07-.64,1.6-12.37,28.87-29.89,54.64-48.14,79.96-3.68,5.1-10.61,4.78-14.48-.34-3.12-4.13-6.09-8.38-8.98-12.68-15.81-23.49-31.46-47.07-41.48-73.83-.29-.78-1.58-1.67-2.41-1.68-8.97-.12-17.95-.08-27.46-.08ZM176.82,6.56c-30.3.03-55.28,24.81-55.14,54.83.04,8.35,3.21,15.98,6.54,23.44,12.13,27.16,28.68,51.67,45.88,75.77,1.82,2.56,3.84,2.46,5.78-.16,2.59-3.52,5.13-7.09,7.62-10.69,14.28-20.66,27.99-41.66,38.14-64.74,3.34-7.59,6.52-15.32,6.52-23.8,0-30.08-24.96-54.67-55.33-54.65ZM47.74,39.01c0,24.42,0,48.02.01,71.63,0,.68-.04,1.47.27,2.02,1.76,3.19,3.72,6.26,5.39,9.49,1.05,2.01,3.25,4.43.41,6.4-3.04,2.11-4.24-1.04-5.94-3.51-.08,1.1-.14,1.52-.14,1.93,0,36.63-.03,73.26.07,109.9,0,1.39.85,3.08,1.85,4.1,10.13,10.39,20.38,20.67,30.6,30.97.75.76,1.59,1.43,2.73,2.44.11-1.25.22-1.92.22-2.59,0-64.97.02-129.94-.07-194.91,0-1.5-.89-3.33-1.96-4.43-10.22-10.46-20.57-20.8-30.89-31.17-.62-.63-1.32-1.18-2.55-2.28Zm258.23,119.69V39.17c-1.17,1.09-2,1.82-2.79,2.6-10.01,10.02-19.97,20.1-30.06,30.03-1.89,1.86-2.57,3.76-2.56,6.36.06,64.04.05,128.07.05,192.11,0,1.2.1,2.41.18,4.15.79-.61,1.15-.83,1.45-1.12,10.88-10.94,21.8-21.85,32.58-32.88.88-.9,1.3-2.63,1.3-3.97.08-22.46.03-44.92.1-67.38,0-2.06-.53-3.39-2.32-4.51-3.6-2.27-7.06-4.77-10.56-7.18-1.89-1.3-4.43-2.59-2.44-5.36,1.96-2.72,4.06-.75,5.95.51,2.93,1.96,5.84,3.95,9.12,6.18Zm6.48-3.61c.64-.68.88-1.16,1.22-1.24,1.4-.31,3.12-1.11,4.17-.6,1.89.94,1.53,2.82.41,4.44-.98,1.42-2.12,2.76-2.9,4.29-1.16,2.28-2.92,4.67-2.94,7.04-.22,22.57-.17,45.13-.05,67.7,0,1.5.83,3.35,1.88,4.43,10.22,10.45,20.58,20.78,30.91,31.12.66.66,1.43,1.21,2.37,2V115.3c-1.32,1.84-2.18,2.99-3,4.18-1.18,1.73-2.69,2.72-4.63,1.38-1.97-1.37-1.44-3.14-.27-4.83,2.1-3.03,4.36-5.96,6.19-9.14,1.02-1.77,1.82-3.95,1.88-5.96.21-7.71,0-15.43.13-23.14.04-2.35-.59-4.06-2.31-5.75-10.08-9.95-20.03-20.02-30.04-30.04-.85-.85-1.77-1.64-3.03-2.8v115.9ZM41.58,39.35c-.8.55-1.11.7-1.34.93-10.93,10.89-21.88,21.75-32.7,32.75-.96.97-1.41,2.84-1.41,4.29-.08,29.36-.06,58.73-.05,88.09,0,.95.13,1.89.24,3.39.63-.88.93-1.21,1.12-1.59.96-1.85,2.35-3.07,4.42-1.94,2.25,1.23,1.85,3.13.75,5.05-1.32,2.29-2.72,4.55-3.83,6.95-1.08,2.34-2.59,4.83-2.6,7.27-.18,28.9-.12,57.8-.11,86.71,0,.93.16,1.86.27,3.13,11.66-11.6,22.96-22.77,34.12-34.07.88-.89,1.23-2.67,1.23-4.04.06-37.65.05-75.31.04-112.96,0-1.03-.12-2.06-.19-3.1-2.71,3.55-4.78,7.12-6.76,10.74-1.02,1.86-2.47,2.98-4.48,1.93-2.07-1.09-1.81-2.96-.8-4.77,1.96-3.52,3.98-7,5.84-10.57,1.34-2.58,2.75-4.81,6.22-3.42V39.35Z"/>
      <path d="m232.46,251.22c-3.79,0-7.58-.03-11.37.01-2.28.03-4.4-.38-4.36-3.13.04-2.51,2.02-2.98,4.19-2.97,7.81.03,15.62.04,23.43,0,2.18-.01,4.18.51,4.21,2.97.04,2.71-2.1,3.16-4.39,3.13-3.91-.05-7.81-.01-11.72-.01Z"/>
      <path d="m232.25,264.66c-3.9,0-7.81-.01-11.71,0-2.05,0-3.8-.54-3.83-2.92-.03-2.37,1.64-3.01,3.74-3.01,8.15.02,16.3.02,24.45,0,2.12,0,3.98.84,3.57,3.04-.21,1.13-2.2,2.63-3.49,2.73-4.22.35-8.48.13-12.73.14Z"/>
      <path d="m129.24,237.39c.91-.65,1.35-1.23,1.84-1.27,1.53-.11,3.63-.64,4.49.13,1.66,1.48.75,3.3-.93,4.61-6.78,5.28-7.8,7.04-11.64-2.43-.99-2.44-2.48-4.73-3.1-7.24-.32-1.29.77-2.92,1.23-4.39,1.37.64,3.32.92,4.01,2,1.63,2.56,2.67,5.5,4.09,8.6Z"/>
      <path d="m241.63,159.39c-.54.07-.68.04-.77.1-1.98,1.27-4.13,3.54-6.15.5-1.8-2.71.76-4.06,2.57-5.44.82-.63,1.64-1.26,2.47-1.87,2.04-1.52,3.8-1.33,5.24.87,2.01,3.08,4.24,6.04,5.92,9.28.6,1.16.44,3.62-.4,4.43-1.57,1.53-3.37.58-4.54-1.24-1.42-2.21-2.88-4.41-4.34-6.63Z"/>
      <path d="m230.83,166.16c-.36.51-.83,1.61-1.65,2.26-3.7,2.91-7.49,5.69-11.27,8.51-1.59,1.18-3.54,1.52-4.41-.36-.51-1.1,0-3.5.93-4.31,3.54-3.08,7.39-5.82,11.21-8.56,2.39-1.71,5-.67,5.18,2.46Z"/>
      <path d="m190.45,196.88c-.59-.46-1.84-.96-2.16-1.82-.33-.88-.15-2.58.48-3.09,4.28-3.49,8.67-6.85,13.19-10.01.67-.46,2.79,0,3.25.69.59.89.74,3.1.14,3.61-4.32,3.61-8.88,6.93-13.38,10.32-.25.19-.66.14-1.52.31Z"/>
      <path d="m111.13,200.28c.52.56,1.66,1.37,2.22,2.47,1.92,3.79,3.63,7.69,5.41,11.55.87,1.89.97,3.97-1.28,4.52-1.15.28-3.37-.8-3.98-1.89-2.17-3.9-3.95-8.04-5.7-12.16-.99-2.32.38-4.49,3.33-4.49Z"/>
      <path d="m181.51,203.7c-.75,1.01-1.2,1.97-1.95,2.57-3.22,2.6-6.41,5.29-9.88,7.51-1.07.69-3.55.62-4.45-.17-1.76-1.53-.67-3.31.99-4.58,3.19-2.45,6.3-5.03,9.62-7.29.96-.66,2.59-.76,3.78-.51.7.14,1.17,1.47,1.88,2.47Z"/>
      <path d="m156.66,222.78c-.81,1.1-1.32,2.15-2.14,2.81-2.93,2.38-5.84,4.83-9.03,6.8-1.1.68-3.52.65-4.43-.12-1.75-1.49-.76-3.29.91-4.56,3.08-2.37,6.1-4.84,9.3-7.03.86-.59,2.4-.62,3.45-.32.75.22,1.2,1.44,1.94,2.42Z"/>
      <path d="m107.63,189.34c-.83.96-1.48,2.4-2.37,2.57-1.08.2-3.02-.31-3.45-1.12-1.95-3.63-3.64-7.43-5.06-11.3-.33-.89.5-2.75,1.36-3.36.69-.49,2.94-.16,3.29.48,2.2,4,4.07,8.19,6.23,12.73Z"/>
      <path d="m177.19,32.04c16.53.07,29.95,13.47,29.93,29.88-.02,16.51-13.73,30.16-30.21,30.09-16.63-.07-29.92-13.6-29.8-30.33.12-16.53,13.5-29.71,30.08-29.64Zm23.58,29.93c0-13.16-10.72-23.94-23.89-24.03-12.79-.09-24.07,10.72-24.12,23.11-.05,13.76,10.82,25.01,24.16,25,13.06-.01,23.85-10.91,23.84-24.08Z"/>
      <path d="m67.17,152.8c-4.34,1.31-6.85-1.26-8.39-5.61-.68-1.93-2.12-3.66-2.5-5.62-.24-1.21.53-3.1,1.49-3.89.54-.44,2.42.73,3.67,1.26.25.1.4.56.5.88,1.55,5.09,4.26,8.3,10.3,7.2.85-.15,2.08,1.78,3.13,2.75-1.03,1.01-1.89,2.43-3.12,2.92-1.29.51-2.94.11-5.07.11Z"/>
      <path d="m290.31,163.06c-.62,1.28-.94,2.14-1.42,2.9-2.13,3.41-4.33,6.79-6.47,10.2-1.11,1.78-2.57,2.86-4.57,1.69-2.04-1.2-1.74-3.01-.61-4.78,2.35-3.69,4.59-7.45,7.15-10.99.63-.87,2.35-1.47,3.46-1.34.91.11,1.66,1.5,2.46,2.31Z"/>
      <path d="m333.86,126.33c2.51.06,4.03,2.52,2.78,4.48-2.76,4.34-5.66,8.6-8.8,12.66-.6.77-2.8,1.02-3.8.54-.76-.36-1.47-2.69-1.02-3.41,2.83-4.56,5.95-8.94,9.07-13.31.4-.57,1.35-.75,1.78-.97Z"/>
      <path d="m17.02,158.46c-.74-1.36-2.38-3.1-2.01-3.89,2.2-4.61,4.78-9.06,7.48-13.41.34-.55,2.3-.66,3.09-.22.76.42,1.64,2.14,1.35,2.74-2.26,4.58-4.77,9.05-7.29,13.49-.27.48-1.17.6-2.61,1.28Z"/>
    </g>
  </g>
</svg>