<?xml version="1.0" encoding="UTF-8"?>
<svg id="_Слой_2" data-name="Слой 2" xmlns="http://www.w3.org/2000/svg" viewBox="0 0 219.08 89.02">
  <defs>
    <style>
      .cls-1 {
        fill: #fff;
      }
    </style>
  </defs>
  <g id="_Слой_1-2" data-name="Слой 1">
    <g>
      <path class="cls-1" d="m218.29,57.17c-1.11,2.29-2.71,4.14-4.81,5.54-2.09,1.41-4.38,2.11-6.86,2.11s-4.69-.74-6.42-2.21c-1.73-1.47-2.6-3.58-2.6-6.33V19.81c0-1.37.56-2.53,1.67-3.48,1.11-.95,2.35-1.55,3.73-1.81.2-.07.28-.21.25-.44s-.15-.34-.34-.34c-3.53.2-7,.29-10.39.29h-3.63c-1.18,0-2.39-.03-3.63-.1v.78c1.57.07,2.88.56,3.92,1.47,1.05.92,1.57,2.16,1.57,3.73v39.91c0,.59-.1,1.27-.29,2.06-.2.78-.49,1.52-.88,2.21-.39.69-.88,1.26-1.47,1.72-.59.46-1.24.72-1.96.78-.2,0-.29.13-.29.39s.1.39.29.39c.33,0,.67-.02,1.03-.05.36-.03.7-.05,1.03-.05,2.16-.07,4.31-.13,6.47-.2s4.31-.1,6.47-.1c2.68,0,5.31.05,7.89.15,2.58.1,5.18.28,7.8.54,0,0,.1-.05.29-.15.2-.1.29-.25.29-.44s-.03-.33-.1-.39c.65-1.31,1.06-2.63,1.23-3.97.16-1.34.31-2.73.44-4.17,0-.2.02-.39.05-.59.03-.2.05-.39.05-.59l-.78-.2Z"/>
      <path class="cls-1" d="m70.31,68.64c3.73,0,7.27-.65,10.64-1.96,3.37-1.31,6.33-3.14,8.87-5.49,2.55-2.35,4.59-5.15,6.13-8.38,1.54-3.24,2.3-6.75,2.3-10.54,0-4.18-.77-8.17-2.3-11.96-1.54-3.79-3.65-7.08-6.33-9.86-2.68-2.78-5.82-4.94-9.41-6.47s-7.49-2.14-11.67-1.81l-1.27.1c-4.64.98-8.56,2.24-11.77,3.78-3.2,1.54-5.79,3.5-7.75,5.88-1.96,2.39-3.38,5.3-4.27,8.73-.88,3.43-1.32,7.53-1.32,12.31,0,3.14.9,6.24,2.7,9.32,1.8,3.07,4.07,5.82,6.82,8.24,2.75,2.42,5.77,4.38,9.07,5.88,3.3,1.5,6.49,2.26,9.56,2.26Zm-15.46-11.88c-1.93-2.57-3.37-5.46-4.35-8.65-.98-3.19-1.47-6.41-1.47-9.68s.47-6.06,1.42-8.83c.95-2.78,2.3-5.21,4.05-7.34,1.77-2.11,3.94-3.78,6.5-4.97,2.58-1.21,5.54-1.81,8.86-1.81,3.53,0,6.64.78,9.35,2.34,2.7,1.57,4.98,3.63,6.85,6.16,1.86,2.53,3.25,5.41,4.2,8.6s1.42,6.37,1.42,9.58-.44,6.08-1.32,8.87c-.88,2.81-2.17,5.26-3.91,7.39-1.73,2.11-3.87,3.81-6.41,5.07-2.55,1.27-5.49,1.91-8.81,1.91-3.53,0-6.65-.8-9.4-2.39-2.73-1.6-5.07-3.69-7-6.26Z"/>
      <path class="cls-1" d="m162.59,14.81c1.37.2,2.57.59,3.58,1.18,1.01.59,1.52,1.63,1.52,3.14v40.7c0,1.7-.38,3.15-1.13,4.36-.75,1.21-1.94,2.11-3.58,2.7-.2.07-.28.21-.25.44.03.23.15.34.34.34,1.77-.07,3.5-.11,5.2-.15,1.7-.03,3.43-.05,5.2-.05,1.24,0,2.47.02,3.68.05,1.21.03,2.47.05,3.78.05v-.78c-2.35-.2-4-.83-4.95-1.91s-1.42-2.86-1.42-5.34V19.12c0-1.7.44-2.78,1.32-3.24.88-.46,2.04-.85,3.48-1.18.2-.07.26-.23.2-.49-.07-.26-.2-.36-.39-.29-1.31.2-2.65.33-4.02.39-1.37.07-2.75.1-4.12.1s-2.84-.03-4.22-.1c-1.37-.07-2.75-.16-4.12-.29-.2,0-.31.11-.34.34-.03.23.05.38.25.44Z"/>
      <path class="cls-1" d="m35.4,63.87c1.63-2.52,2.45-5.34,2.45-8.5,0-2.42-.44-4.64-1.32-6.67-.88-2.03-2.04-3.94-3.48-5.7-1.44-1.77-3.07-3.45-4.9-5.05-1.83-1.6-3.66-3.19-5.49-4.77-1.7-1.37-3.35-2.76-4.95-4.17s-3.01-2.84-4.22-4.31c-1.21-1.47-2.19-2.97-2.94-4.53-.75-1.54-1.13-3.19-1.13-4.95s.31-3.27.93-4.71c.62-1.45,1.47-2.68,2.55-3.69,1.08-1.01,2.35-1.81,3.82-2.4,1.47-.59,3.06-.88,4.76-.88s3.12.31,4.46.93,2.52,1.44,3.53,2.45c1.01,1.01,1.86,2.21,2.55,3.58.69,1.37,1.19,2.84,1.52,4.41.07.2.21.28.44.25.23-.03.34-.15.34-.34,0-.13.02-.25.05-.34s.05-.21.05-.34c.33-2.09.6-4.18.83-6.28.23-2.09.44-4.17.64-6.23,0-.25-.1-.38-.29-.38-3.01-.83-6.21-1.24-9.61-1.24-2.48,0-5.18.31-8.09.93s-5.61,1.62-8.09,2.99c-2.48,1.37-4.58,3.14-6.28,5.3-1.7,2.16-2.55,4.74-2.55,7.75,0,1.96.46,3.92,1.37,5.88.92,1.96,2.09,3.89,3.53,5.79,1.44,1.9,3.07,3.74,4.9,5.54s3.66,3.58,5.49,5.34c1.77,1.63,3.5,3.3,5.2,5,1.7,1.7,3.22,3.4,4.56,5.1,1.34,1.7,2.42,3.42,3.24,5.15.82,1.73,1.23,3.42,1.23,5.05,0,1.77-.44,3.38-1.32,4.85-.88,1.47-2.01,2.71-3.38,3.73-1.37,1.01-2.91,1.8-4.61,2.35-1.7.56-3.37.83-5,.83-1.96,0-3.76-.28-5.39-.83-1.63-.56-3.07-1.36-4.31-2.4-1.24-1.05-2.21-2.35-2.89-3.92s-1.03-3.37-1.03-5.39v-1.08c0-.2-.11-.31-.34-.34-.23-.03-.38.05-.44.25-.13.52-.25,1.06-.34,1.62-.1.56-.21,1.1-.34,1.62-.26.98-.51,1.99-.74,3.04-.23,1.05-.34,2.16-.34,3.33,0,1.63.38,2.99,1.13,4.07.75,1.08,1.72,1.96,2.89,2.65,1.18.69,2.48,1.18,3.92,1.47s2.84.44,4.22.44c2.75,0,5.64-.49,8.68-1.47s5.82-2.39,8.34-4.22c2.52-1.85,4.59-4.02,6.23-6.54Z"/>
      <path class="cls-1" d="m153.18,64.62c-.98-1.11-1.47-2.78-1.47-5V19.42c0-1.63.43-2.7,1.27-3.19.85-.49,1.99-.87,3.43-1.13.2-.07.28-.21.25-.44s-.15-.34-.34-.34c-1.31.07-2.63.11-3.97.15-1.34.03-2.66.05-3.97.05-2.94,0-5.98-.1-9.12-.29-.2,0-.31.11-.34.34s.05.38.25.44c.26.07.51.13.74.2.23.07.47.13.74.2,1.18.33,2.17.7,2.99,1.13.82.42,1.23,1.42,1.23,2.99v16.67h-30.01v-17.06c0-1.31.47-2.32,1.42-3.04.95-.72,2.01-1.08,3.19-1.08.2,0,.29-.13.29-.39s-.1-.39-.29-.39h-2.06c-1.11,0-2.22.02-3.33.05-1.11.03-2.22.05-3.33.05-2.68,0-5.39-.1-8.14-.29v.78c1.31.07,2.53.46,3.68,1.18,1.14.72,1.72,1.8,1.72,3.24v41.78c0,1.05-.05,1.9-.15,2.55s-.31,1.19-.64,1.62c-.33.42-.82.75-1.47.98s-1.5.44-2.55.64c-.2.07-.28.21-.25.44.03.23.15.34.34.34.26,0,.57.02.93.05.36.03.67.05.93.05.85.07,1.7.1,2.55.1h2.45c.72,0,1.55-.02,2.5-.05.95-.03,1.78-.05,2.5-.05,1.05-.07,2.03-.1,2.94-.1h3.04c.2,0,.29-.13.29-.39s-.1-.39-.29-.39c-4.25-.39-6.37-2.65-6.37-6.77v-20.59h30.11v20.4c0,2.09-.29,3.63-.88,4.61-.59.98-1.9,1.77-3.92,2.35-.2.07-.28.21-.25.44.03.23.15.34.34.34,1.31-.07,2.57-.11,3.78-.15,1.21-.03,2.44-.05,3.68-.05,3.4,0,6.83.1,10.3.29l.1-.78c-2.22-.39-3.82-1.14-4.81-2.26Z"/>
      <polygon class="cls-1" points="28.22 82.57 30.11 82.57 30.11 87.38 31.17 87.38 31.17 82.57 33.06 82.57 33.06 81.67 28.22 81.67 28.22 82.57"/>
      <path class="cls-1" d="m37.66,84.85c0,.59-.12,1.01-.38,1.28-.25.27-.61.4-1.07.4s-.82-.13-1.07-.4c-.25-.27-.38-.69-.38-1.28v-3.18h-1.06v3.22c0,.83.22,1.47.66,1.91s1.06.66,1.84.66,1.39-.22,1.83-.66.67-1.08.67-1.91v-3.22h-1.04v3.18Z"/>
      <path class="cls-1" d="m43.84,85.47c.36-.16.64-.39.84-.69.2-.3.29-.66.29-1.08s-.1-.78-.29-1.08c-.2-.3-.47-.54-.84-.7-.36-.16-.79-.24-1.3-.24h-2.35v5.71h1.06v-1.66h1.29c.08,0,.14-.01.21-.02l1.17,1.68h1.14l-1.32-1.88s.06-.01.09-.03Zm-.29-2.61c.24.2.36.48.36.84s-.12.64-.36.84-.59.3-1.05.3h-1.24v-2.28h1.24c.47,0,.82.1,1.05.29Z"/>
      <path class="cls-1" d="m47.91,81.67l-2.57,5.71h1.09l.57-1.32h2.86l.57,1.32h1.11l-2.58-5.71h-1.04Zm-.55,3.56l1.07-2.5,1.07,2.5h-2.14Z"/>
      <path class="cls-1" d="m55.91,85.47c.36-.16.64-.39.84-.69.2-.3.29-.66.29-1.08s-.1-.78-.29-1.08c-.2-.3-.47-.54-.84-.7s-.79-.24-1.3-.24h-2.35v5.71h1.06v-1.66h1.29c.08,0,.14-.01.21-.02l1.17,1.68h1.14l-1.32-1.88s.06-.01.09-.03Zm-.29-2.61c.24.2.36.48.36.84s-.12.64-.36.84-.59.3-1.06.3h-1.24v-2.28h1.24c.47,0,.82.1,1.06.29Z"/>
      <path class="cls-1" d="m57.86,82.56h2.03v2.95c0,.7-.3,1.05-.89,1.05-.22,0-.43-.05-.62-.16-.19-.11-.36-.27-.52-.49l-.61.73c.2.27.45.47.76.61.31.14.64.21,1.01.21.62,0,1.1-.17,1.43-.5.33-.33.49-.83.49-1.51v-3.78h-3.09v.89Z"/>
      <path class="cls-1" d="m67.31,82.42c-.28-.26-.6-.47-.98-.62-.37-.15-.78-.22-1.23-.22s-.85.07-1.22.22c-.38.15-.7.35-.98.62s-.49.57-.64.93c-.15.36-.23.75-.23,1.17s.07.81.23,1.17c.15.36.37.67.64.93s.6.47.98.62c.38.15.79.22,1.23.22s.85-.07,1.22-.22c.37-.15.7-.35.98-.61.28-.26.49-.57.64-.93s.23-.75.23-1.17-.08-.81-.23-1.17c-.15-.36-.37-.67-.64-.93Zm-.35,2.9c-.1.24-.24.45-.42.64s-.39.32-.64.42c-.24.1-.51.15-.8.15s-.55-.05-.8-.15c-.25-.1-.46-.24-.64-.42s-.32-.4-.42-.64c-.1-.24-.15-.51-.15-.8s.05-.56.15-.8c.1-.24.24-.45.42-.64s.39-.32.64-.42c.24-.1.51-.15.79-.15s.55.05.8.15c.25.1.46.24.64.42s.32.39.42.64c.1.24.15.51.15.8s-.05.56-.15.8Z"/>
      <polygon class="cls-1" points="72.72 81.67 71.03 84.45 69.36 81.67 68.22 81.67 70.47 85.38 70.47 87.38 71.53 87.38 71.53 85.37 73.76 81.67 72.72 81.67"/>
      <polygon class="cls-1" points="82.07 81.67 79.85 85.45 77.58 81.67 76.71 81.67 76.71 87.38 77.72 87.38 77.72 83.64 79.6 86.73 80.07 86.73 81.94 83.6 81.95 87.38 82.95 87.38 82.95 81.67 82.07 81.67"/>
      <path class="cls-1" d="m86.26,81.67l-2.57,5.71h1.09l.57-1.32h2.86l.57,1.32h1.11l-2.58-5.71h-1.04Zm-.55,3.56l1.07-2.5,1.07,2.5h-2.14Z"/>
      <path class="cls-1" d="m90.45,82.56h2.03v2.95c0,.7-.3,1.05-.89,1.05-.22,0-.43-.05-.62-.16-.19-.11-.36-.27-.52-.49l-.61.73c.2.27.45.47.76.61.31.14.64.21,1.01.21.62,0,1.1-.17,1.43-.5.33-.33.49-.83.49-1.51v-3.78h-3.09v.89Z"/>
      <polygon class="cls-1" points="100.39 81.67 98.17 85.45 95.9 81.67 95.03 81.67 95.03 87.38 96.04 87.38 96.04 83.64 97.92 86.73 98.39 86.73 100.26 83.6 100.27 87.38 101.27 87.38 101.27 81.67 100.39 81.67"/>
      <path class="cls-1" d="m106.72,84.85c0,.59-.12,1.01-.38,1.28-.25.27-.61.4-1.07.4s-.82-.13-1.07-.4c-.25-.27-.38-.69-.38-1.28v-3.18h-1.06v3.22c0,.83.22,1.47.67,1.91s1.05.66,1.84.66,1.39-.22,1.83-.66.66-1.08.66-1.91v-3.22h-1.04v3.18Z"/>
      <path class="cls-1" d="m110.89,81.67l-2.57,5.71h1.09l.57-1.32h2.86l.57,1.32h1.11l-2.58-5.71h-1.04Zm-.55,3.56l1.07-2.5,1.07,2.5h-2.14Z"/>
      <path class="cls-1" d="m118.65,84.56c-.2-.11-.42-.21-.66-.28-.24-.07-.48-.13-.73-.19-.25-.06-.47-.12-.67-.18-.2-.06-.36-.14-.48-.25-.12-.11-.18-.25-.18-.42,0-.15.04-.28.13-.39.08-.11.22-.21.4-.28s.42-.11.71-.11c.25,0,.51.04.78.11.27.07.54.19.79.34l.33-.82c-.25-.16-.54-.29-.88-.38-.34-.09-.68-.13-1.02-.13-.52,0-.95.08-1.29.23-.34.15-.59.36-.76.62s-.25.54-.25.85.06.55.19.75.29.35.49.47c.2.12.42.21.66.29s.48.14.73.19c.24.05.46.11.66.18.2.06.36.15.48.25.12.11.19.25.19.42,0,.14-.04.27-.13.38-.09.11-.22.2-.41.26-.19.07-.43.1-.73.1-.35,0-.7-.06-1.04-.18-.34-.12-.62-.27-.85-.45l-.37.82c.24.2.56.37.97.49.41.13.84.19,1.28.19.52,0,.96-.08,1.3-.23s.6-.36.76-.62c.16-.26.25-.54.25-.84s-.06-.55-.18-.74-.28-.35-.48-.46Z"/>
      <rect class="cls-1" x="120.37" y="81.67" width="1.06" height="5.71"/>
      <polygon class="cls-1" points="124.21 88.19 125.12 88.19 127.82 80.51 126.9 80.51 124.21 88.19"/>
      <path class="cls-1" d="m133.95,83.25c-.33-.18-.71-.28-1.14-.28-.35,0-.68.08-.97.24-.16.09-.3.21-.43.36v-2.24h-1.02v6.05h.97v-.6c.13.16.28.31.46.41.29.16.62.24.99.24.43,0,.81-.09,1.14-.28.33-.19.59-.45.78-.78.19-.33.29-.72.29-1.17s-.1-.84-.29-1.17c-.19-.33-.46-.59-.78-.77Zm-.13,2.68c-.11.21-.27.36-.46.47-.19.11-.41.16-.66.16s-.46-.05-.66-.16c-.2-.11-.35-.27-.46-.47-.12-.21-.17-.45-.17-.73s.06-.53.17-.73c.11-.2.27-.36.46-.47.2-.11.42-.16.66-.16s.46.05.66.16.35.27.46.47c.12.2.17.45.17.73s-.06.52-.17.73Z"/>
      <path class="cls-1" d="m137.6,86.25l-1.37-3.22h-1.06l1.9,4.37-.08.17c-.1.22-.2.37-.32.46-.11.09-.26.14-.45.14-.14,0-.27-.03-.4-.08-.13-.05-.25-.13-.35-.22l-.41.75c.14.12.32.22.53.29.21.07.42.11.64.11.24,0,.47-.04.67-.11.21-.08.39-.21.55-.4.17-.19.32-.45.45-.77l2.04-4.71h-.98l-1.38,3.22Z"/>
      <polygon class="cls-1" points="149.69 83.7 148.22 81.67 147.05 81.67 147.02 81.67 142.2 81.67 142.2 82.57 144.1 82.57 144.1 87.38 145.16 87.38 145.16 82.57 147.05 82.57 147.05 81.71 149.03 84.46 146.91 87.38 148.12 87.38 149.65 85.21 151.2 87.38 152.42 87.38 150.28 84.43 152.28 81.67 151.13 81.67 149.69 83.7"/>
      <polygon class="cls-1" points="152.28 82.57 154.17 82.57 154.17 87.38 155.23 87.38 155.23 82.57 157.12 82.57 157.12 81.67 152.28 81.67 152.28 82.57"/>
      <path class="cls-1" d="m161.41,83.08c.18-.18.4-.32.66-.42.26-.1.53-.15.83-.15s.59.05.85.16c.26.11.5.27.72.49l.67-.65c-.27-.3-.59-.54-.98-.69s-.82-.24-1.31-.24c-.45,0-.86.07-1.23.22s-.7.35-.98.61-.5.58-.65.93-.23.75-.23,1.17.08.82.23,1.17.37.67.64.93c.28.26.6.47.97.61s.78.22,1.23.22c.4,0,.8-.06,1.2-.18.39-.12.74-.3,1.04-.54v-2.28h-1v1.77c-.12.07-.23.12-.36.17-.26.09-.54.13-.82.13-.3,0-.58-.05-.83-.15s-.47-.24-.65-.42c-.19-.18-.33-.4-.43-.64-.1-.24-.15-.51-.15-.8s.05-.56.15-.81c.1-.24.24-.46.43-.64Z"/>
      <path class="cls-1" d="m170.12,85.47c.36-.16.64-.39.84-.69.2-.3.29-.66.29-1.08s-.1-.78-.29-1.08c-.2-.3-.47-.54-.84-.7-.36-.16-.79-.24-1.3-.24h-2.35v5.71h1.06v-1.66h1.29c.08,0,.14-.01.21-.02l1.17,1.68h1.14l-1.32-1.88s.06-.01.09-.03Zm-.29-2.61c.24.2.36.48.36.84s-.12.64-.36.84-.59.3-1.05.3h-1.24v-2.28h1.24c.47,0,.82.1,1.05.29Z"/>
      <path class="cls-1" d="m177.3,82.42c-.28-.26-.6-.47-.97-.62-.37-.15-.78-.22-1.23-.22s-.85.07-1.22.22c-.38.15-.7.35-.98.62s-.49.57-.64.93c-.15.36-.23.75-.23,1.17s.08.81.23,1.17c.15.36.37.67.64.93s.6.47.98.62.79.22,1.23.22.85-.07,1.22-.22.7-.35.97-.61c.28-.26.49-.57.64-.93s.23-.75.23-1.17-.08-.81-.23-1.17c-.15-.36-.37-.67-.64-.93Zm-.35,2.9c-.1.24-.24.45-.42.64-.18.18-.39.32-.63.42-.25.1-.51.15-.8.15s-.55-.05-.8-.15-.46-.24-.64-.42c-.18-.18-.32-.4-.42-.64-.1-.24-.15-.51-.15-.8s.05-.56.15-.8c.1-.24.24-.45.43-.64.18-.18.39-.32.63-.42.24-.1.51-.15.79-.15s.55.05.8.15c.24.1.46.24.63.42.18.18.32.39.42.64.1.24.15.51.15.8s-.05.56-.15.8Z"/>
      <path class="cls-1" d="m183.21,84.85c0,.59-.12,1.01-.38,1.28-.25.27-.61.4-1.07.4s-.82-.13-1.07-.4c-.25-.27-.38-.69-.38-1.28v-3.18h-1.06v3.22c0,.83.22,1.47.67,1.91s1.05.66,1.84.66,1.39-.22,1.83-.66.66-1.08.66-1.91v-3.22h-1.04v3.18Z"/>
      <path class="cls-1" d="m189.39,81.91c-.36-.16-.79-.24-1.3-.24h-2.35v5.71h1.06v-1.65h1.29c.51,0,.94-.08,1.3-.25.36-.16.64-.4.84-.7s.29-.67.29-1.08-.1-.78-.29-1.08c-.2-.3-.47-.54-.84-.7Zm-.29,2.62c-.24.2-.59.3-1.06.3h-1.24v-2.27h1.24c.47,0,.82.1,1.06.29.24.2.36.48.36.84s-.12.64-.36.84Z"/>
    </g>
  </g>
</svg>